<svg
  xmlns="http://www.w3.org/2000/svg"
  viewBox="0 0 64 64"
  fill="none"
>
  <!-- Squircle container background and border matching the screenshot -->
  <rect
    x="3"
    y="3"
    width="58"
    height="58"
    rx="18"
    fill="#0d121f"
    stroke="#d97706"
    stroke-width="2"
    stroke-opacity="0.8"
  />

  <!-- Cloud outline centered inside the squircle -->
  <path
    d="M16 41 C11 41 8 37 8 33 C8 29 11 25 15.5 24.2 C15.5 19.5 19.5 15.5 25 15.5 C29.8 15.5 33.8 18.7 35.4 22.7 C37 21.9 39.4 21 42 21 C47.5 21 53 25.8 53 31.5 C53 36.5 49 41 43.5 41 Z"
    stroke="#d97706"
    stroke-width="2.5"
    stroke-linejoin="round"
    stroke-linecap="round"
  />

  <!-- Glowing 4-point starburst flare inside the cloud -->
  <path
    d="M30 20 Q30 27 37 27 Q30 27 30 34 Q30 27 23 27 Q30 27 30 20 Z"
    fill="#f59e0b"
  />
</svg>
